{"title":"Kung Fu Panda 2 2011 TS AC3 XViD-EP1C - MovieJockey.com","uid":6428085,"size":1498920877,"categoryP":"video","categoryS":"movies","magnet":"?xt=urn:btih:41c40e00daf0496d526e57004dca5ed1215259ad&amp;dn=Kung+Fu+Panda+2+2011+TS+AC3+XViD-EP1C+-+MovieJockey.com&amp;tr=udp%3A%2F%2Ftracker.openbittorrent.com%3A80&amp;tr=udp%3A%2F%2Fopen.demonii.com%3A1337&amp;tr=udp%3A%2F%2Ftracker.coppersurfer.tk%3A6969&amp;tr=udp%3A%2F%2Fexodus.desync.com%3A6969","seeders":0,"leechers":1,"uploader":"kadavul","files":3,"time":1306552542,"description":"[CENTER][CENTER][SIZE=&quot;5&quot;][U][B]Kung Fu Panda 2 2011 TS AC3 XViD-EP1C - MovieJockey.com[/B][/U][/SIZE][/CENTER]\n\n[URL=http://www.grinshare.com/][IMG]http://www.grinshare.com/img/G7HCU0.jpg[/IMG][/URL]\n\n\n\n [CENTER][SIZE=&quot;4&quot;]::::::::::::  EP1C Presents  ::::::::::::\n\n\n::File:: Kung.Fu.Panda.2.2011.TS.AC3.XViD-EP1C\n\n\n::Video Source:: That Russian Good Good\n::Audio Source:: Our Own Good Good\n\n::Encoder::::::: iNK\n::Syncer:::::::: iNK\n\n::Language:::::: English\n::IMDB:::::::::: [url]http://www.imdb.com/title/tt1302011/[/url]\n\n\nPo joins forces with a group of new kung-fu masters to \ntake on an old enemy with a deadly new weapon.\n\n\n::Specs:::::::::\n\nFormat                           : AVI\nFormat/Info                      : Audio Video Interleave\nFile size                        : 1.37 GiB\nDuration                         : 1h 20mn\nOverall bit rate                 : 2 421 Kbps\nWriting application              : VirtualDubMod 1.5.10.2 (build 2540/release)\nWriting library                  : VirtualDubMod build 2540/release\n\nVideo\nID                               : 0\nFormat                           : MPEG-4 Visual\nFormat profile                   : Advanced Simple@L5\nFormat settings, BVOP            : Yes\nFormat settings, QPel            : No\nFormat settings, GMC             : No warppoints\nFormat settings, Matrix          : Default (H.263)\nMuxing mode                      : Packed bitstream\nCodec ID                         : XVID\nCodec ID/Hint                    : XviD\nDuration                         : 1h 20mn\nBit rate                         : 2 220 Kbps\nWidth                            : 672 pixels\nHeight                           : 352 pixels\nDisplay aspect ratio             : 1.909\nFrame rate                       : 25.000 fps\nColor space                      : YUV\nChroma subsampling               : 4:2:0\nBit depth                        : 8 bits\nScan type                        : Progressive\nBits/(Pixel*Frame)               : 0.375\nStream size                      : 1.26 GiB (92%)\nWriting library                  : XviD 58\n\nAudio\nID                               : 1\nFormat                           : AC-3\nFormat/Info                      : Audio Coding 3\nMode extension                   : CM (complete main)\nCodec ID                         : 2000\nDuration                         : 1h 20mn\nBit rate mode                    : Constant\nBit rate                         : 192 Kbps\nChannel(s)                       : 2 channels\nChannel positions                : Front: L R\nSampling rate                    : 48.0 KHz\nBit depth                        : 16 bits\nStream size                      : 111 MiB (8%)\nAlignment                        : Split accross interleaves\nInterleave, duration             : 40 ms (1.00 video frame)\nInterleave, preload duration     : 500 ms\n\n\n::NOTES::::::::: \nPresenting the first TeleSync of Kung Fu Panda 2. Ran a few things through \nto clean it up. This will do until something better. Also, comes with our\nown LiNE, in full stereo. Enjoy. //iNK[/SIZE][/CENTER]\n[URL=http://www.grinshare.com/][IMG]http://www.grinshare.com/img/4YO5ZC.png[/IMG][/URL]\n [URL=http://www.grinshare.com/][IMG]http://www.grinshare.com/img/7JSGFC.png[/IMG][/URL] [URL=http://www.grinshare.com/][IMG]http://www.grinshare.com/img/1WSVAG.png[/IMG][/URL] [URL=http://www.grinshare.com/][IMG]http://www.grinshare.com/img/PDYBL3.png[/IMG][/URL] [URL=http://www.grinshare.com/][IMG]http://www.grinshare.com/img/3RDTYN.png[/IMG][/URL] \n[/CENTER]","torrent":{"xt":"urn:btih:41c40e00daf0496d526e57004dca5ed1215259ad","amp;dn":"Kung+Fu+Panda+2+2011+TS+AC3+XViD-EP1C+-+MovieJockey.com","amp;tr":["udp%3A%2F%2Ftracker.openbittorrent.com%3A80","udp%3A%2F%2Fopen.demonii.com%3A1337","udp%3A%2F%2Ftracker.coppersurfer.tk%3A6969","udp%3A%2F%2Fexodus.desync.com%3A6969"],"infoHash":"41c40e00daf0496d526e57004dca5ed1215259ad","infoHashBuffer":{"type":"Buffer","data":[65,196,14,0,218,240,73,109,82,110,87,0,77,202,94,209,33,82,89,173]},"announce":[],"urlList":[]}}